<svg width="64" height="64" viewBox="0 0 64 64" fill="none" xmlns="http://www.w3.org/2000/svg">
<g clip-path="url(#clip0_529_95)">
<path fill-rule="evenodd" clip-rule="evenodd" d="M22.8583 20.5715H35.5045V27.0547H35.6875C37.4486 23.8952 41.755 20.5715 48.1767 20.5715C61.5304 20.5715 64.0001 28.8818 64.0001 39.6926V61.7145H50.8117V42.193C50.8117 37.5394 50.7148 31.5488 43.9541 31.5488C37.0871 31.5488 36.0347 36.6146 36.0347 41.854V61.7145H22.8582V20.5715H22.8583ZM13.7153 9.143C13.7153 12.9285 10.6432 16.0006 6.85772 16.0006C3.07222 16.0006 -0.000976562 12.9285 -0.000976562 9.143C-0.000976562 5.3575 3.07222 2.2854 6.85772 2.2854C10.6432 2.2854 13.7153 5.3575 13.7153 9.143ZM-0.000976562 20.5715H13.7153V61.7145H-0.000976562V20.5715V20.5715Z" fill="#097BED"/>
</g>
<defs>
<clipPath id="clip0_529_95">
<rect width="64" height="64" fill="white"/>
</clipPath>
</defs>
</svg>
